<?xml version="1.0" encoding="UTF-8" standalone="no"?>
<svg
   xmlns:dc="http://purl.org/dc/elements/1.1/"
   xmlns:cc="http://creativecommons.org/ns#"
   xmlns:rdf="http://www.w3.org/1999/02/22-rdf-syntax-ns#"
   xmlns:svg="http://www.w3.org/2000/svg"
   xmlns="http://www.w3.org/2000/svg"
   xmlns:sodipodi="http://sodipodi.sourceforge.net/DTD/sodipodi-0.dtd"
   xmlns:inkscape="http://www.inkscape.org/namespaces/inkscape"
   version="1.1"
   viewBox="0 0 2146.0204 2626.5099"
   enable-background="new 0 0 129 129"
   id="svg2"
   inkscape:version="0.91 r13725"
   sodipodi:docname="siren.svg"
   width="2146.0203"
   height="2626.51"
   inkscape:export-filename="/home/eric/data/WORK/PROJECT/TOOL/SIREN/LOGO/siren.png"
   inkscape:export-xdpi="90"
   inkscape:export-ydpi="90">
  <metadata
     id="metadata16">
    <rdf:RDF>
      <cc:Work
         rdf:about="">
        <dc:format>image/svg+xml</dc:format>
        <dc:type
           rdf:resource="http://purl.org/dc/dcmitype/StillImage" />
        <dc:title></dc:title>
      </cc:Work>
    </rdf:RDF>
  </metadata>
  <defs
     id="defs14" />
  <sodipodi:namedview
     pagecolor="#ffffff"
     bordercolor="#666666"
     borderopacity="1"
     objecttolerance="10"
     gridtolerance="10"
     guidetolerance="10"
     inkscape:pageopacity="0"
     inkscape:pageshadow="2"
     inkscape:window-width="1920"
     inkscape:window-height="1056"
     id="namedview12"
     showgrid="false"
     showguides="true"
     inkscape:guide-bbox="true"
     inkscape:zoom="0.25"
     inkscape:cx="1054.8396"
     inkscape:cy="1315.0337"
     inkscape:window-x="0"
     inkscape:window-y="0"
     inkscape:window-maximized="1"
     inkscape:current-layer="svg2"
     fit-margin-top="100"
     fit-margin-right="200"
     fit-margin-left="200"
     fit-margin-bottom="100" />
  <text
     xml:space="preserve"
     style="font-style:normal;font-weight:normal;font-size:45.17457581px;line-height:125%;font-family:sans-serif;letter-spacing:0px;word-spacing:0px;fill:#000000;fill-opacity:1;stroke:none;stroke-width:1px;stroke-linecap:butt;stroke-linejoin:miter;stroke-opacity:1"
     x="197.24278"
     y="2520.9956"
     id="text4253"
     sodipodi:linespacing="125%"><tspan
       sodipodi:role="line"
       id="tspan4255"
       x="197.24278"
       y="2520.9956"
       style="font-style:normal;font-variant:normal;font-weight:normal;font-stretch:normal;font-size:705.85272217px;font-family:'Whimsy TT';-inkscape-font-specification:'Whimsy TT'">Siren</tspan></text>
  <g
     id="g4242"
     transform="matrix(3.5156274,0,0,3.5156274,173.0103,99.998165)">
    <path
       id="path4142"
       d="m 333.149,408.787 c -8.696,2.152 -16.855,3.384 -24.475,3.889 -23.837,1.58 -42.451,-3.978 -56.168,-11.128 -20.049,-10.467 -29.597,-24.352 -29.597,-24.352 19.802,-5.839 24.162,-53.344 23.131,-63.217 l 2.084,-0.045 c 0.09,10.546 40.613,10.176 41.386,1.659 l 19.634,0 c -1.02,11.408 39.907,14.58 41.106,14.871 0.056,0.415 0.202,1.49 0.359,3.127 0.975,10.499 2.174,44.097 -17.46,75.196 z"
       style="fill:#ffd0b8"
       inkscape:connector-curvature="0" />
    <path
       id="path4144"
       d="m 296.791,386.064 c -2.681,0 -4.948,-2.204 -5.037,-4.879 -0.091,-2.682 2.035,-5.02 4.71,-5.194 2.723,-0.178 5.16,1.945 5.357,4.668 0.208,2.872 -2.154,5.405 -5.03,5.405 z"
       style="fill:#e2b39f"
       inkscape:connector-curvature="0" />
    <path
       id="path4146"
       d="m 458.316,113.378 c 0,34.214 -11.577,55.675 -26.168,69.145 l 0,0.011 c -24.901,22.985 -58.6,22.705 -58.6,22.705 l -0.011,0 c 3.53,-12.619 5.211,-26.65 5.211,-41.431 0,-14.905 -1.703,-29.037 -5.301,-41.734 -60.191,0.134 -121.895,-40.636 -121.895,-40.636 0,38.361 -21.763,53.904 -36.343,60.001 -7.363,3.082 -12.899,3.765 -12.899,3.765 l -0.011,-0.011 c -2.465,-1.703 -5.267,-2.678 -8.226,-2.678 -10.03,0 -18.166,11.039 -18.166,24.655 0,13.616 8.136,24.655 18.166,24.655 3.474,0 6.735,-1.334 9.492,-3.642 5.603,22.29 18.704,41.599 36.455,55.092 0,0 -6.04,19.645 -28.084,44.132 C 111.266,314.796 64.299,233.178 60.085,225.411 l 0.796,-0.504 c 3.228,5.211 7.531,9.929 12.899,13.919 43.706,32.499 90.774,-10.086 72.844,-61.637 -5.267,-18.726 -8.259,-35.312 -9.503,-49.993 -4.427,-52.167 13.179,-80.307 29.126,-94.854 15.51,-14.154 38.697,-16.261 56.258,-4.752 2.522,1.659 3.833,2.858 3.833,2.858 24.251,-24.251 58.331,-32.712 92.926,-29.944 68.529,5.457 139.052,54.935 139.052,112.874 z"
       style="fill:#f7b348"
       inkscape:connector-curvature="0" />
    <path
       id="path4148"
       d="m 158.369,437.173 c 0.684,4.494 0.583,7.609 0.583,7.609 -1.625,0.65 -26.989,17.766 -28.536,18.281 -15.813,-5.413 -3.639,-21.038 -12.145,-16.522 -27.165,-14.356 -22.738,-65.458 -22.738,-65.458 0,0 14.064,17.527 39.257,25.507 17.101,5.424 22.122,21.08 23.579,30.583 z"
       style="fill:#3eadad"
       inkscape:connector-curvature="0" />
    <path
       id="path4150"
       d="m 338.752,408.787 c -18.48,29.272 -55.428,56.359 -128.429,59.877 -15.757,0.762 -33.194,0.426 -52.492,-1.222 l -2.522,-0.336 c 3.956,-9.593 3.642,-18.805 3.642,-18.805 -1.625,-0.65 -3.216,-1.244 -4.763,-1.759 1.547,-0.516 3.138,-1.109 4.763,-1.759 0,0 0.101,-3.115 -0.583,-7.609 36.074,-4.46 55.025,-23.377 64.73,-44.692 2.286,-5.021 4.057,-10.164 5.413,-15.286 0,-0.001 34.562,50.261 110.241,31.591 z"
       style="fill:#52cbce"
       inkscape:connector-curvature="0" />
    <path
       id="path4152"
       d="m 378.749,163.808 c 0,0 31.334,-2.51 31.334,-29.866 0,-21.088 -36.635,-11.868 -36.635,-11.868"
       style="fill:#c18033"
       inkscape:connector-curvature="0" />
    <path
       id="path4154"
       d="m 434.633,328.484 c 0,0 -44.614,11.823 -84.387,1.984 -1.199,-0.291 -2.398,-0.605 -3.586,-0.941 2.084,-2.914 3.44,-6.388 3.788,-10.209 1.02,-11.408 -5.715,-15.88 -17.113,-16.911 -11.408,-1.02 -23.164,1.782 -24.195,13.19 l -19.634,0 c 0.885,-9.795 -3.956,-14.479 -12.563,-16.25 -1.412,-0.291 -2.936,-0.504 -4.55,-0.65 -11.397,-1.031 -23.164,1.782 -24.184,13.179 -0.067,0.695 -0.09,1.378 -0.09,2.062 l -2.084,0.045 c -5.749,5.11 -12.585,9.29 -19.982,12.708 -4.079,1.883 -8.327,3.541 -12.664,4.998 -35.514,11.913 -76.856,10.243 -76.856,10.243 29.339,-13.997 50.71,-29.967 66.131,-44.905 3.373,-3.261 6.455,-6.477 9.268,-9.615 13.493,-14.983 20.99,-28.162 24.767,-36.119 2.409,-5.054 3.317,-8.013 3.317,-8.013 9.817,7.464 21.046,-7.766 33.239,-4.348 8.596,2.421 17.662,3.709 27.042,3.709 10.613,0 20.049,19.253 28.364,16.171 l 0.067,0.191 c 0,0 2.578,2.835 7.049,7.352 6.847,6.926 18.121,17.807 31.356,28.555 20.914,16.965 46.678,33.574 67.5,33.574 z"
       style="fill:#ffd0b8"
       inkscape:connector-curvature="0" />
    <path
       id="path4156"
       d="m 335.779,266.354 c -2.275,1.154 -4.651,2.197 -7.116,3.104 -8.315,3.082 -17.751,4.74 -28.364,4.74 -16.989,0 -32.981,-4.236 -46.979,-11.722 l 0,-0.011 c -4.662,-2.499 -9.111,-5.357 -13.302,-8.54 -1.121,-0.852 -2.23,-1.737 -3.317,-2.634 2.409,-5.054 3.317,-8.013 3.317,-8.013 9.817,7.464 21.046,-7.766 33.239,-4.348 8.596,2.421 17.662,3.709 27.042,3.709 10.613,0 20.049,19.253 28.364,16.171 l 0.067,0.19 c 0,0.002 2.577,2.837 7.049,7.354 z"
       style="fill:#efc1ac"
       inkscape:connector-curvature="0" />
    <path
       id="path4158"
       d="m 378.745,163.812 c 0,4.528 -0.157,8.999 -0.482,13.37 -0.314,4.348 -0.796,8.596 -1.446,12.742 -0.818,5.29 -1.905,10.411 -3.284,15.32 -3.015,10.803 -7.385,20.564 -13.213,28.88 -7.833,11.196 -18.301,19.769 -31.659,24.688 -8.315,3.082 -17.751,4.74 -28.364,4.74 -16.989,0 -32.981,-4.236 -46.979,-11.722 l 0,-0.011 c -4.662,-2.499 -9.111,-5.357 -13.302,-8.54 -17.751,-13.493 -30.852,-32.802 -36.455,-55.092 -2.757,2.309 -6.018,3.642 -9.492,3.642 -10.03,0 -18.166,-11.039 -18.166,-24.655 0,-13.616 8.136,-24.655 18.166,-24.655 2.959,0 5.76,0.975 8.226,2.678 l 0.011,0.011 c 0,0 49.242,-6.052 49.242,-63.766 0,0 10.254,6.769 26.47,14.782 23.579,11.655 59.765,25.932 95.425,25.854 3.599,12.698 5.302,26.829 5.302,41.734 z"
       style="fill:#ffd0b8"
       inkscape:connector-curvature="0" />
    <path
       id="path4160"
       d="m 445.843,278.049 c 0,0 -60.774,-2.028 -78.705,16.855 -21.864,-17.751 -38.405,-35.906 -38.405,-35.906 l -0.067,-0.191 c 13.358,-4.92 23.825,-13.493 31.659,-24.688 l 0.011,0 c 0,0 54.128,0.224 85.507,43.93 z"
       style="fill:#e0993b"
       inkscape:connector-curvature="0" />
    <g
       id="g4162">
      <path
         id="path4164"
         d="m 275.3,333.433 c -2.712,22.593 -9.178,47.035 -22.794,68.103 l 0,0.011 c -20.049,-10.467 -29.597,-24.352 -29.597,-24.352 19.802,-5.839 24.162,-53.344 23.131,-63.217 -5.749,5.11 -12.585,9.29 -19.982,12.708 -4.079,1.883 -8.327,3.541 -12.664,4.998 2.051,-8.203 7.273,-34.662 -10.725,-34.662 3.373,-3.261 6.455,-6.477 9.268,-9.615 22.044,-24.487 28.084,-44.132 28.084,-44.132 9.817,7.464 21.046,13.145 33.239,16.564 0,0 3.272,16.295 3.687,39.504 -1.412,-0.291 -2.936,-0.504 -4.55,-0.65 -11.397,-1.031 -23.164,1.782 -24.184,13.179 -0.067,0.695 -0.09,1.378 -0.09,2.062 0.09,10.546 8.17,19.477 18.883,20.452 2.892,0.257 5.705,-0.09 8.294,-0.953 z"
         style="fill:#efc1ac"
         inkscape:connector-curvature="0" />
      <path
         id="path4166"
         d="m 278.023,96.22 -1.401,5.884 c 0,0 -62.287,57.367 -23.299,149.71 -4.662,-2.499 -9.111,-5.357 -13.302,-8.54 -17.751,-13.493 -30.852,-32.802 -36.455,-55.092 -2.757,2.309 -6.018,3.642 -9.492,3.642 -10.03,0 -18.166,-11.039 -18.166,-24.655 0,-13.616 8.136,-24.655 18.166,-24.655 2.959,0 5.76,0.975 8.226,2.678 l 0.011,0.011 c 0,0 49.242,-6.052 49.242,-63.766 -0.001,0.001 10.254,6.77 26.47,14.783 z"
         style="fill:#efc1ac"
         inkscape:connector-curvature="0" />
    </g>
    <path
       id="path4168"
       d="m 146.624,177.189 c 17.931,51.551 -29.137,94.136 -72.844,61.637 -5.368,-3.99 -9.671,-8.708 -12.899,-13.919 -20.878,-33.699 3.407,-87.883 76.239,-97.711 1.245,14.68 4.237,31.266 9.504,49.993 z"
       style="fill:#c18033"
       inkscape:connector-curvature="0" />
    <path
       id="path4170"
       d="m 378.263,177.182 c -0.314,4.348 -0.796,8.596 -1.446,12.742 -0.415,0.179 -0.841,0.303 -1.289,0.392 l -12.327,2.421 c -0.482,0.101 -0.953,0.146 -1.412,0.146 -3.418,0 -6.455,-2.409 -7.15,-5.884 -0.773,-3.945 1.793,-7.777 5.749,-8.551 l 12.327,-2.432 c 2.007,-0.392 3.991,0.079 5.548,1.166 z"
       style="fill:#f9af8f"
       inkscape:connector-curvature="0" />
    <path
       id="path4172"
       d="m 240.021,243.275 c 0,0 -6.04,19.645 -28.084,44.132 C 111.267,314.796 64.3,233.178 60.086,225.411 l 0.796,-0.504 c 3.228,5.211 7.531,9.929 12.899,13.919 43.706,32.499 90.774,-10.086 72.844,-61.637 -5.267,-18.726 -8.259,-35.312 -9.503,-49.993 -4.427,-52.167 13.179,-80.307 29.126,-94.854 15.51,-14.154 38.697,-16.261 56.258,-4.752 0,0 -60.359,60.785 -7.296,113.849 -7.363,3.082 -12.899,3.765 -12.899,3.765 l -0.011,-0.011 c -2.465,-1.703 -5.267,-2.678 -8.226,-2.678 -10.03,0 -18.166,11.039 -18.166,24.655 0,13.616 8.136,24.655 18.166,24.655 3.474,0 6.735,-1.334 9.492,-3.642 5.603,22.29 18.703,41.599 36.455,55.092 z"
       style="fill:#e0993b"
       inkscape:connector-curvature="0" />
    <g
       id="g4174">
      <path
         id="path4176"
         d="m 291.034,157.084 c -3.52,-0.186 -5.968,-0.323 -8.225,-0.31 l -6.036,0.004 -6.03,0.011 c -2.255,-0.011 -4.7,0.12 -8.23,0.296 0.211,-3.551 2.23,-6.42 4.856,-8.448 2.657,-2.013 6.037,-3.071 9.405,-3.064 3.367,0.006 6.744,1.062 9.399,3.078 2.622,2.029 4.64,4.891 4.861,8.433 z"
         style="fill:#a87d6d"
         inkscape:connector-curvature="0" />
      <path
         id="path4178"
         d="m 375.387,157.084 c -3.52,-0.188 -5.966,-0.324 -8.222,-0.312 l -6.036,0.006 -6.031,0.011 c -2.255,-0.011 -4.7,0.119 -8.23,0.295 0.211,-3.551 2.231,-6.42 4.857,-8.448 2.657,-2.013 6.037,-3.071 9.404,-3.064 3.366,0.004 6.744,1.06 9.399,3.076 2.621,2.03 4.64,4.894 4.859,8.436 z"
         style="fill:#a87d6d"
         inkscape:connector-curvature="0" />
    </g>
    <path
       id="path4180"
       d="m 210.334,468.653 c 0,0 -0.011,0 -0.011,0.011 -15.757,0.762 -33.194,0.426 -52.492,-1.222 l -2.522,-0.336 c -12.286,-4.883 -17.049,-9.646 -17.049,-9.646 -1.625,-0.65 2.222,-25.656 0.676,-26.171 1.547,-0.516 7.505,1.326 9.13,0.676 0,0 10.986,9.702 10.302,5.208 36.074,-4.46 60.438,-38.663 70.143,-59.978 0,0 22.01,64.663 -18.177,91.458 z"
       style="fill:#3eadad"
       inkscape:connector-curvature="0" />
    <g
       id="g4182">
      <path
         id="path4184"
         d="m 146.682,335.683 c -1.711,-0.479 -3.062,-0.749 -4.598,-0.977 -1.496,-0.215 -2.996,-0.361 -4.514,-0.384 -3.028,-0.059 -6.096,0.165 -9.133,0.978 -3.025,0.793 -6.022,2.014 -8.637,3.932 -2.582,1.949 -4.781,4.541 -5.635,7.597 3.123,-0.735 5.664,-1.028 8.162,-1.129 2.502,-0.067 4.911,0.055 7.315,0.174 2.405,0.141 4.838,0.372 7.277,0.572 l 2.335,0.217 c -0.017,1.363 -0.002,2.731 0.074,4.113 0.249,3.579 0.677,7.195 1.989,10.987 2.671,-2.996 4.456,-6.168 6.063,-9.377 0.778,-1.609 1.474,-3.235 2.099,-4.875 0.607,-1.643 1.185,-3.293 1.657,-4.963 l 1.475,-5.206 -5.929,-1.659 z"
         style="fill:#ffd0b8"
         inkscape:connector-curvature="0" />
      <path
         id="path4186"
         d="m 415.519,325.448 c 1.711,-0.479 3.062,-0.749 4.598,-0.977 1.496,-0.215 2.996,-0.361 4.514,-0.384 3.028,-0.059 6.096,0.165 9.133,0.978 3.025,0.793 6.022,2.014 8.637,3.932 2.582,1.949 4.781,4.541 5.635,7.597 -3.123,-0.735 -5.664,-1.028 -8.162,-1.129 -2.502,-0.067 -4.911,0.055 -7.315,0.174 -2.405,0.141 -4.838,0.372 -7.277,0.572 l -2.336,0.217 c 0.017,1.363 0.002,2.731 -0.074,4.113 -0.249,3.579 -0.677,7.195 -1.989,10.987 -2.671,-2.996 -4.456,-6.168 -6.063,-9.377 -0.778,-1.609 -1.474,-3.235 -2.099,-4.875 -0.607,-1.643 -1.185,-3.293 -1.657,-4.963 l -1.475,-5.206 5.93,-1.659 z"
         style="fill:#ffd0b8"
         inkscape:connector-curvature="0" />
    </g>
    <path
       id="path4188"
       d="m 306.345,421.317 c -24.28,0 -42.742,-6.948 -55.23,-14.007 -19.565,-11.06 -29.133,-24.774 -29.531,-25.352 -2.63,-3.825 -1.661,-9.058 2.164,-11.687 3.817,-2.625 9.036,-1.665 11.671,2.138 1.34,1.912 32.624,45.166 101.319,28.219 0.659,-0.162 1.335,-0.244 2.014,-0.244 4.643,0 8.411,3.763 8.411,8.405 0,4.043 -2.851,7.42 -6.655,8.224 -12.432,3.043 -23.827,4.304 -34.163,4.304 z"
       style="fill:#3eadad"
       inkscape:connector-curvature="0" />
    <rect
       id="rect4190"
       height="10.086"
       width="36.463001"
       style="fill:#2b8ebf"
       y="310.54999"
       x="284.47101" />
    <path
       id="path4192-6"
       d="m 292.219,201.949 c 5.486,1.253 9.81,2.233 13.999,2.778 4.143,0.584 8.003,0.816 11.867,0.825 3.864,-0.025 7.719,-0.261 11.86,-0.843 4.185,-0.548 8.509,-1.518 14.007,-2.76 -1.287,5.52 -5.063,9.987 -9.731,13.096 -4.705,3.087 -10.422,4.748 -16.137,4.73 -5.714,0.003 -11.426,-1.663 -16.129,-4.748 -4.66,-3.113 -8.437,-7.57 -9.736,-13.078 z"
       style="fill:#ffffff"
       inkscape:connector-curvature="0" />
    <path
       id="path4194"
       d="m 271.775,193.253 c -0.365,0 -0.736,-0.028 -1.108,-0.084 l -13.448,-2.054 c -3.977,-0.607 -6.708,-4.325 -6.101,-8.301 0.607,-3.976 4.329,-6.707 8.301,-6.101 l 13.448,2.054 c 3.977,0.607 6.708,4.325 6.101,8.301 -0.553,3.603 -3.656,6.185 -7.193,6.185 z"
       style="fill:#f9af8f"
       inkscape:connector-curvature="0" />
    <path
       id="path4196"
       d="m 274.976,296.307 c 12.883,1.152 20.489,6.202 19.325,19.085 -1.164,12.883 -12.541,22.375 -25.412,21.223 -12.099,-1.1 -21.223,-11.188 -21.325,-23.097 0,-0.772 0.026,-1.544 0.101,-2.329 1.151,-12.869 14.44,-16.046 27.311,-14.882 z"
       style="fill:#399bd8"
       inkscape:connector-curvature="0" />
    <path
       id="path4198"
       d="m 260.451,313.519 c 0,-0.772 0.026,-1.544 0.101,-2.329 0.818,-9.145 7.766,-13.393 16.335,-14.67 -0.626,-0.08 -1.257,-0.155 -1.912,-0.213 -12.871,-1.164 -26.16,2.013 -27.311,14.884 -0.076,0.784 -0.101,1.557 -0.101,2.329 0.101,11.909 9.226,21.995 21.325,23.097 2.95,0.263 5.812,-0.055 8.499,-0.821 -9.852,-2.833 -16.848,-11.858 -16.936,-22.277 z"
       style="fill:#2b8ebf"
       inkscape:connector-curvature="0" />
    <path
       id="path4200"
       d="m 338.294,296.307 c 12.883,1.152 20.489,6.202 19.325,19.085 -1.164,12.883 -12.541,22.375 -25.412,21.223 -12.099,-1.1 -21.223,-11.188 -21.325,-23.097 0,-0.772 0.026,-1.544 0.101,-2.329 1.151,-12.869 14.44,-16.046 27.311,-14.882 z"
       style="fill:#399bd8"
       inkscape:connector-curvature="0" />
    <path
       id="path4202"
       d="m 323.769,313.519 c 0,-0.772 0.026,-1.544 0.101,-2.329 0.818,-9.145 7.766,-13.393 16.335,-14.67 -0.626,-0.08 -1.257,-0.155 -1.912,-0.213 -12.871,-1.164 -26.16,2.013 -27.311,14.884 -0.076,0.784 -0.101,1.557 -0.101,2.329 0.101,11.909 9.227,21.995 21.325,23.097 2.95,0.263 5.812,-0.055 8.499,-0.821 -9.852,-2.833 -16.848,-11.858 -16.936,-22.277 z"
       style="fill:#2b8ebf"
       inkscape:connector-curvature="0" />
    <path
       id="path4204"
       d="m 158.951,448.301 c 0,0 0.314,9.212 -3.642,18.805 -3.216,7.777 -9.234,15.813 -20.519,19.388 C 109.597,494.484 95.533,512 95.533,512 c 0,0 -4.427,-51.103 22.738,-65.458 8.506,-4.516 20.105,-5.413 35.918,0 1.546,0.515 3.137,1.109 4.762,1.759 z"
       style="fill:#52cbce"
       inkscape:connector-curvature="0" />
    <g
       id="g4206" />
    <g
       id="g4208" />
    <g
       id="g4210" />
    <g
       id="g4212" />
    <g
       id="g4214" />
    <g
       id="g4216" />
    <g
       id="g4218" />
    <g
       id="g4220" />
    <g
       id="g4222" />
    <g
       id="g4224" />
    <g
       id="g4226" />
    <g
       id="g4228" />
    <g
       id="g4230" />
    <g
       id="g4232" />
    <g
       id="g4234" />
  </g>
</svg>
